<?xml version="1.0" encoding="UTF-8" standalone="no"?><!DOCTYPE svg PUBLIC "-//W3C//DTD SVG 1.1//EN" "http://www.w3.org/Graphics/SVG/1.1/DTD/svg11.dtd"><svg width="100%" height="100%" viewBox="0 0 408 591" version="1.1" xmlns="http://www.w3.org/2000/svg" xmlns:xlink="http://www.w3.org/1999/xlink" xml:space="preserve" xmlns:serif="http://www.serif.com/" style="fill-rule:evenodd;clip-rule:evenodd;stroke-linecap:round;stroke-linejoin:round;stroke-miterlimit:1.5;"><g id="laskin"><path d="M402,8.59c0,-1.429 -1.161,-2.59 -2.59,-2.59l-390.82,0c-1.429,0 -2.59,1.161 -2.59,2.59l0,573.82c0,1.429 1.161,2.59 2.59,2.59l390.82,0c1.429,0 2.59,-1.161 2.59,-2.59l0,-573.82Z" style="fill:none;stroke:#fafffa;stroke-width:11px;"/><path d="M370.756,64.603c0,-0.885 -0.718,-1.603 -1.602,-1.603l-330.308,0c-0.884,0 -1.602,0.718 -1.602,1.603l0,127.794c0,0.885 0.718,1.603 1.602,1.603l330.308,0c0.884,0 1.602,-0.718 1.602,-1.603l0,-127.794Z" style="fill:#fafafa;"/><g><rect x="47" y="267.009" width="75.087" height="53.438" style="fill:#fbfef5;"/><rect x="166.457" y="267.009" width="75.087" height="53.438" style="fill:#fbfef5;"/><rect x="285.913" y="267.009" width="75.087" height="53.438" style="fill:#fbfef5;"/></g><g><rect x="47" y="366.387" width="75.087" height="53.438" style="fill:#fbfef5;"/><rect x="166.457" y="366.387" width="75.087" height="53.438" style="fill:#fbfef5;"/><rect x="285.913" y="366.387" width="75.087" height="53.438" style="fill:#fbfef5;"/></g><g><rect x="47" y="465.766" width="75.087" height="53.438" style="fill:#fbfef5;"/><rect x="166.457" y="465.766" width="75.087" height="53.438" style="fill:#fbfef5;"/><rect x="285.913" y="465.766" width="75.087" height="53.438" style="fill:#fbfef5;"/></g></g></svg>